# xmcd CD database file
#
# Track frame offsets:
#	150
#	14377
#	36936
#	54277
#	68278
#	90486
#	104112
#	127584
#	137987
#	168368
#	187149
#	201585
#
# Disc length: 2955 seconds
#
# Revision: 0
# Processed by: cddbd v1.5.2PL0 Copyright (c) Steve Scherf et al.
# Submitted via: CDex 1.70beta2
#
DISCID=a40b890c
DTITLE=Various Artist - 女子ジャズ  RELAX-104
DYEAR=2015
DGENRE=Jazz
TTITLE0=Dinner With Friends
TTITLE1=Take The ’A’ Train
TTITLE2=April In Paris
TTITLE3=Lady Bird
TTITLE4=When I Fall In Love
TTITLE5=Guess What
TTITLE6=Autumn Leaves
TTITLE7=Moonlight Becomes You
TTITLE8=When Your Lover Has Gone
TTITLE9=Fly Me To The Moon
TTITLE10=Mas Que Nada
TTITLE11=Fantasy
EXTD=YEAR: 2015
EXTT0=
EXTT1=
EXTT2=
EXTT3=
EXTT4=
EXTT5=
EXTT6=
EXTT7=
EXTT8=
EXTT9=
EXTT10=
EXTT11=
PLAYORDER=
